<?xml version="1.0" encoding="utf-8"?>
<!-- Generator: Adobe Illustrator 16.0.0, SVG Export Plug-In . SVG Version: 6.00 Build 0)  -->
<!DOCTYPE svg PUBLIC "-//W3C//DTD SVG 1.1//EN" "http://www.w3.org/Graphics/SVG/1.1/DTD/svg11.dtd">
<svg version="1.1" id="Layer_1" xmlns="http://www.w3.org/2000/svg" xmlns:xlink="http://www.w3.org/1999/xlink" x="0px" y="0px"
	 width="612px" height="792px" viewBox="0 0 612 792" enable-background="new 0 0 612 792" xml:space="preserve">
<path fill="#010101" d="M191.055,621.831c-4.984-4.877-6.911-13.939-4.464-20.99c1.41-4.053,4.195-7.1,7.587-8.294
	c1.638-0.574,3.184-0.625,4.994-0.167c4.99,1.271,8.962,5.975,10.353,12.262c0.233,1.055,0.347,1.87,0.449,3.21
	c0.208,2.741,0.016,5.043-0.627,7.538c-0.891,3.449-2.421,5.958-4.72,7.735c-1.639,1.266-3.122,1.895-4.913,2.077
	c-1.043,0.109-1.845,0.052-2.879-0.201c-1.549-0.377-2.662-0.856-3.919-1.686C192.469,623.023,191.399,622.169,191.055,621.831
	L191.055,621.831z M259.526,656.427c-0.766-0.872-1.514-2.247-1.844-3.393c-0.352-1.215-0.437-2.795-0.238-4.409
	c0.249-2.022,1.154-4.116,2.689-6.215c0.513-0.699,1.996-2.366,2.595-2.918c2.101-1.926,4.342-3.39,6.781-4.431
	c3.493-1.491,6.944-1.961,10.194-1.389c2.289,0.405,4.254,1.314,5.908,2.734c1.846,1.586,2.801,3.471,3.033,5.988
	c0.281,2.996-0.576,5.98-2.557,8.908c-0.461,0.684-1.74,2.192-2.363,2.79c-4.324,4.145-10.336,6.511-15.688,6.177
	c-2.272-0.142-4.39-0.79-6.117-1.873C261.457,658.108,259.813,656.751,259.526,656.427L259.526,656.427z M219.168,614.638
	c-1.105-1.189-1.993-2.59-2.674-4.216c-0.326-0.776-0.467-1.192-0.763-2.234c-0.998-3.527-1.077-7.281-0.233-11.136
	c1.338-6.125,5.133-11.816,9.628-14.442c1.819-1.062,3.426-1.556,5.587-1.718c0.826-0.06,1.1-0.057,1.725,0.02
	c0.853,0.108,2.17,0.428,2.754,0.671c1.204,0.495,2.708,1.441,3.502,2.204c0.898,0.863,1.727,1.846,2.348,2.784
	c0.953,1.43,1.683,3.241,2.119,5.249c0.519,2.392,0.588,5.513,0.179,8.213c-0.252,1.662-0.729,3.766-1.167,5.145
	c-0.641,2.007-1.64,4.104-2.801,5.863c-1.975,2.995-4.394,5.121-7.205,6.335c-0.601,0.258-1.834,0.625-2.545,0.754
	c-0.649,0.118-2.017,0.191-2.702,0.145c-1.011-0.066-2.853-0.503-3.804-0.898c-1.137-0.473-1.808-0.888-2.876-1.781
	C219.779,615.208,219.297,614.777,219.168,614.638L219.168,614.638z M248.468,630.642c-1-0.942-1.506-1.563-2.08-2.545
	c-0.689-1.179-1.225-2.655-1.439-3.964c-0.107-0.656-0.194-2.079-0.173-2.771c0.103-2.803,0.989-5.713,2.642-8.632
	c1.37-2.418,2.988-4.392,5.497-6.707c2.141-1.972,4.458-3.499,6.874-4.527c3.066-1.308,5.809-1.66,8.838-1.136
	c1.675,0.291,3.168,0.883,4.629,1.839c0.943,0.616,2.041,1.703,2.768,2.728c0.545,0.773,1.26,2.344,1.592,3.51
	c0.711,2.45,0.598,5.529-0.309,8.523c-0.795,2.633-2.09,5.186-3.797,7.492c-0.48,0.65-1.822,2.213-2.367,2.758
	c-2.94,2.935-6.267,4.93-9.991,5.988c-3.427,0.974-6.501,0.885-9.259-0.271C250.613,632.394,249.624,631.733,248.468,630.642
	L248.468,630.642z M250.279,681.791c1.064-1.251,1.294-1.57,1.951-2.703c1.986-3.424,3.076-7.633,3.22-12.446
	c0.137-4.497-0.552-9.459-2.039-14.727c-2.447-8.654-6.117-15.377-11.278-20.657c-2.642-2.703-4.999-4.472-7.306-5.479
	c-1.393-0.607-3.336-1.071-5.556-1.324c-6.16-0.697-12.438,0.021-18.831,2.15c-6.946,2.316-13.63,6.138-18.664,10.672
	c-1.346,1.212-1.667,1.545-3.02,3.137c-2.081,2.446-2.894,3.627-3.917,5.695c-1.489,3.013-2.25,6.29-2.187,9.419
	c0.024,1.133,0.179,2.555,0.4,3.618c0.549,2.651,1.942,5.476,3.542,7.194c0.319,0.344,2.048,1.813,2.597,2.209
	c1.192,0.861,3.521,1.956,5.406,2.545c1.308,0.408,3.838,0.985,5.223,1.189c3.901,0.576,7.707,0.581,12.547,0.016
	c1.436-0.166,2.163-0.193,2.561-0.094c0.424,0.105,0.34,0.01,1.998,2.357c1.157,1.638,2.731,3.54,4.194,5.063
	c1.002,1.043,2.1,2.041,3.725,3.385c1.559,1.292,2.268,1.82,3.421,2.547c5.274,3.328,10.106,3.826,15.176,1.565
	c1.334-0.595,2.412-1.239,3.615-2.167C248.271,684.024,248.938,683.368,250.279,681.791z M46.872,665.056
	c-4.984-4.876-6.91-13.938-4.464-20.989c1.41-4.053,4.195-7.1,7.587-8.294c1.638-0.574,3.185-0.625,4.993-0.167
	c4.99,1.271,8.962,5.975,10.353,12.262c0.234,1.055,0.347,1.87,0.449,3.21c0.208,2.741,0.016,5.043-0.627,7.538
	c-0.891,3.448-2.421,5.958-4.72,7.735c-1.638,1.266-3.121,1.895-4.914,2.076c-1.043,0.109-1.845,0.053-2.879-0.2
	c-1.548-0.378-2.661-0.856-3.919-1.687C48.286,666.249,47.216,665.394,46.872,665.056L46.872,665.056z M115.343,699.652
	c-0.766-0.872-1.514-2.247-1.844-3.394c-0.352-1.215-0.438-2.794-0.238-4.408c0.248-2.022,1.154-4.116,2.689-6.215
	c0.512-0.699,1.996-2.367,2.595-2.918c2.1-1.926,4.342-3.39,6.781-4.432c3.493-1.492,6.944-1.961,10.194-1.388
	c2.289,0.405,4.253,1.313,5.908,2.734c1.847,1.586,2.801,3.47,3.034,5.988c0.281,2.996-0.576,5.98-2.557,8.907
	c-0.462,0.684-1.74,2.193-2.364,2.791c-4.324,4.145-10.335,6.51-15.688,6.177c-2.272-0.142-4.389-0.79-6.117-1.874
	C117.274,701.333,115.63,699.977,115.343,699.652L115.343,699.652z M74.985,657.863c-1.105-1.191-1.994-2.59-2.674-4.216
	c-0.326-0.776-0.468-1.192-0.763-2.234c-0.998-3.527-1.078-7.281-0.233-11.136c1.338-6.125,5.133-11.816,9.629-14.442
	c1.819-1.062,3.425-1.556,5.586-1.718c0.826-0.06,1.1-0.057,1.726,0.02c0.853,0.108,2.17,0.429,2.754,0.671
	c1.204,0.495,2.708,1.441,3.502,2.204c0.898,0.863,1.727,1.846,2.348,2.783c0.953,1.431,1.683,3.242,2.119,5.25
	c0.519,2.392,0.588,5.513,0.179,8.213c-0.252,1.662-0.729,3.766-1.167,5.145c-0.641,2.007-1.64,4.104-2.801,5.863
	c-1.975,2.995-4.394,5.121-7.205,6.335c-0.6,0.258-1.834,0.625-2.545,0.754c-0.649,0.118-2.017,0.191-2.702,0.146
	c-1.01-0.067-2.853-0.504-3.804-0.899c-1.137-0.473-1.808-0.889-2.876-1.781c-0.461-0.386-0.943-0.816-1.074-0.956H74.985z
	 M104.285,673.867c-1-0.942-1.506-1.563-2.08-2.546c-0.689-1.178-1.225-2.654-1.439-3.963c-0.107-0.656-0.194-2.08-0.173-2.771
	c0.103-2.802,0.99-5.712,2.643-8.631c1.369-2.418,2.988-4.392,5.497-6.706c2.14-1.973,4.457-3.5,6.873-4.528
	c3.065-1.308,5.809-1.66,8.838-1.136c1.675,0.291,3.167,0.883,4.628,1.839c0.943,0.616,2.043,1.703,2.768,2.729
	c0.545,0.771,1.26,2.342,1.592,3.508c0.711,2.45,0.597,5.529-0.309,8.522c-0.794,2.633-2.089,5.187-3.797,7.492
	c-0.481,0.651-1.823,2.214-2.368,2.758c-2.94,2.936-6.267,4.93-9.99,5.988c-3.428,0.975-6.502,0.886-9.259-0.271
	C106.43,675.618,105.441,674.958,104.285,673.867L104.285,673.867z M106.096,725.017c1.064-1.251,1.294-1.57,1.951-2.703
	c1.986-3.426,3.077-7.633,3.22-12.446c0.137-4.497-0.552-9.46-2.039-14.727c-2.446-8.655-6.117-15.378-11.278-20.657
	c-2.641-2.703-4.999-4.472-7.306-5.479c-1.393-0.608-3.335-1.071-5.556-1.324c-6.16-0.698-12.438,0.021-18.831,2.149
	c-6.946,2.316-13.63,6.139-18.664,10.671c-1.346,1.214-1.667,1.547-3.02,3.138c-2.081,2.447-2.894,3.628-3.917,5.695
	c-1.489,3.014-2.25,6.291-2.187,9.42c0.024,1.133,0.179,2.555,0.4,3.617c0.549,2.65,1.942,5.477,3.542,7.195
	c0.319,0.344,2.047,1.813,2.596,2.209c1.193,0.861,3.521,1.956,5.406,2.545c1.308,0.408,3.838,0.985,5.223,1.189
	c3.901,0.576,7.707,0.581,12.547,0.016c1.436-0.166,2.164-0.193,2.561-0.094c0.424,0.105,0.34,0.01,1.998,2.357
	c1.157,1.638,2.732,3.54,4.195,5.063c1.002,1.043,2.1,2.041,3.725,3.385c1.56,1.292,2.268,1.819,3.421,2.547
	c5.274,3.328,10.106,3.826,15.176,1.565c1.334-0.595,2.412-1.239,3.615-2.167C104.088,727.25,104.755,726.594,106.096,725.017z
	 M297.103,449.831c-4.984-4.877-6.911-13.939-4.464-20.99c1.41-4.053,4.195-7.1,7.587-8.294c1.638-0.574,3.184-0.625,4.994-0.167
	c4.99,1.271,8.962,5.975,10.353,12.262c0.233,1.055,0.347,1.87,0.449,3.21c0.209,2.741,0.016,5.043-0.627,7.538
	c-0.891,3.449-2.422,5.958-4.721,7.735c-1.639,1.266-3.121,1.895-4.913,2.077c-1.043,0.109-1.845,0.052-2.879-0.201
	c-1.549-0.377-2.662-0.856-3.919-1.686C298.517,451.023,297.447,450.169,297.103,449.831L297.103,449.831z M365.574,484.427
	c-0.766-0.872-1.514-2.247-1.844-3.393c-0.352-1.215-0.438-2.795-0.238-4.409c0.248-2.022,1.154-4.116,2.689-6.215
	c0.512-0.699,1.995-2.366,2.595-2.918c2.101-1.926,4.342-3.39,6.781-4.431c3.493-1.491,6.944-1.961,10.194-1.389
	c2.289,0.405,4.254,1.314,5.908,2.734c1.846,1.586,2.801,3.471,3.033,5.988c0.281,2.996-0.576,5.98-2.557,8.908
	c-0.461,0.684-1.74,2.192-2.363,2.79c-4.324,4.145-10.336,6.511-15.688,6.177c-2.272-0.142-4.39-0.79-6.117-1.873
	C367.505,486.108,365.861,484.751,365.574,484.427L365.574,484.427z M325.216,442.638c-1.104-1.189-1.993-2.59-2.674-4.216
	c-0.325-0.776-0.467-1.192-0.763-2.234c-0.998-3.527-1.077-7.281-0.233-11.136c1.339-6.125,5.134-11.816,9.628-14.442
	c1.82-1.062,3.426-1.556,5.588-1.718c0.826-0.06,1.1-0.057,1.725,0.02c0.854,0.108,2.17,0.428,2.754,0.671
	c1.205,0.495,2.709,1.441,3.502,2.204c0.898,0.863,1.727,1.846,2.348,2.784c0.953,1.43,1.684,3.241,2.119,5.249
	c0.52,2.392,0.588,5.513,0.18,8.213c-0.252,1.662-0.73,3.766-1.168,5.145c-0.641,2.007-1.641,4.104-2.801,5.863
	c-1.975,2.995-4.395,5.121-7.205,6.335c-0.6,0.258-1.834,0.625-2.545,0.754c-0.648,0.118-2.016,0.191-2.701,0.145
	c-1.012-0.066-2.854-0.503-3.805-0.898c-1.137-0.473-1.807-0.888-2.875-1.781C325.827,443.208,325.346,442.777,325.216,442.638
	L325.216,442.638z M354.516,458.642c-1-0.942-1.506-1.563-2.08-2.545c-0.689-1.179-1.225-2.655-1.439-3.964
	c-0.107-0.656-0.193-2.079-0.174-2.771c0.104-2.803,0.99-5.713,2.643-8.632c1.369-2.418,2.988-4.392,5.496-6.707
	c2.141-1.972,4.459-3.499,6.875-4.527c3.065-1.308,5.809-1.66,8.838-1.136c1.675,0.291,3.168,0.883,4.629,1.839
	c0.943,0.616,2.041,1.703,2.768,2.728c0.545,0.773,1.26,2.344,1.592,3.51c0.711,2.45,0.598,5.529-0.309,8.523
	c-0.795,2.633-2.09,5.186-3.797,7.492c-0.48,0.65-1.822,2.213-2.367,2.758c-2.94,2.935-6.267,4.93-9.991,5.988
	c-3.427,0.974-6.501,0.885-9.259-0.271C356.66,460.394,355.672,459.733,354.516,458.642L354.516,458.642z M356.326,509.791
	c1.064-1.251,1.295-1.57,1.951-2.703c1.986-3.424,3.076-7.633,3.221-12.446c0.137-4.497-0.553-9.459-2.039-14.727
	c-2.447-8.654-6.117-15.377-11.277-20.657c-2.643-2.703-5-4.472-7.307-5.479c-1.393-0.607-3.336-1.071-5.557-1.324
	c-6.16-0.697-12.438,0.021-18.83,2.15c-6.945,2.316-13.63,6.138-18.664,10.672c-1.346,1.212-1.667,1.545-3.02,3.137
	c-2.081,2.446-2.894,3.627-3.917,5.695c-1.489,3.013-2.25,6.29-2.187,9.419c0.024,1.133,0.179,2.555,0.4,3.618
	c0.549,2.651,1.942,5.476,3.542,7.194c0.319,0.344,2.048,1.813,2.597,2.209c1.192,0.861,3.521,1.956,5.406,2.545
	c1.308,0.408,3.838,0.985,5.223,1.189c3.901,0.576,7.707,0.581,12.547,0.016c1.436-0.166,2.163-0.193,2.561-0.094
	c0.424,0.105,0.34,0.01,1.998,2.357c1.157,1.638,2.731,3.54,4.194,5.063c1.002,1.043,2.1,2.041,3.725,3.385
	c1.559,1.292,2.268,1.82,3.422,2.547c5.273,3.328,10.105,3.826,15.176,1.565c1.334-0.595,2.412-1.239,3.615-2.167
	C354.318,512.024,354.986,511.368,356.326,509.791z M152.92,493.056c-4.984-4.876-6.91-13.938-4.464-20.989
	c1.41-4.053,4.195-7.1,7.587-8.294c1.638-0.574,3.185-0.625,4.993-0.167c4.99,1.271,8.962,5.975,10.353,12.262
	c0.234,1.055,0.347,1.87,0.449,3.21c0.208,2.741,0.016,5.043-0.627,7.538c-0.891,3.448-2.421,5.958-4.72,7.735
	c-1.638,1.266-3.121,1.895-4.914,2.076c-1.043,0.109-1.845,0.053-2.879-0.2c-1.548-0.378-2.661-0.856-3.919-1.687
	C154.334,494.249,153.264,493.394,152.92,493.056L152.92,493.056z M221.391,527.652c-0.766-0.872-1.514-2.247-1.844-3.394
	c-0.352-1.215-0.438-2.794-0.238-4.408c0.248-2.022,1.154-4.116,2.689-6.215c0.512-0.699,1.996-2.367,2.595-2.918
	c2.1-1.926,4.342-3.39,6.781-4.432c3.493-1.492,6.944-1.961,10.194-1.388c2.289,0.405,4.253,1.313,5.908,2.734
	c1.847,1.586,2.801,3.47,3.034,5.988c0.281,2.996-0.576,5.98-2.557,8.907c-0.462,0.684-1.74,2.193-2.364,2.791
	c-4.324,4.145-10.335,6.51-15.688,6.177c-2.272-0.142-4.389-0.79-6.117-1.874C223.322,529.333,221.678,527.977,221.391,527.652
	L221.391,527.652z M181.033,485.863c-1.105-1.191-1.994-2.59-2.674-4.216c-0.326-0.776-0.468-1.192-0.763-2.234
	c-0.998-3.527-1.078-7.281-0.233-11.136c1.338-6.125,5.133-11.816,9.629-14.442c1.819-1.062,3.425-1.556,5.586-1.718
	c0.826-0.06,1.1-0.057,1.726,0.02c0.853,0.108,2.17,0.429,2.754,0.671c1.204,0.495,2.708,1.441,3.502,2.204
	c0.898,0.863,1.727,1.846,2.348,2.783c0.953,1.431,1.683,3.242,2.119,5.25c0.519,2.392,0.588,5.513,0.179,8.213
	c-0.252,1.662-0.729,3.766-1.167,5.145c-0.641,2.007-1.64,4.104-2.801,5.863c-1.975,2.995-4.394,5.121-7.205,6.335
	c-0.6,0.258-1.834,0.625-2.545,0.754c-0.649,0.118-2.017,0.191-2.702,0.146c-1.01-0.067-2.853-0.504-3.804-0.899
	c-1.137-0.473-1.808-0.889-2.876-1.781c-0.461-0.386-0.943-0.816-1.074-0.956H181.033z M210.333,501.867
	c-1-0.942-1.506-1.563-2.08-2.546c-0.689-1.178-1.225-2.654-1.439-3.963c-0.107-0.656-0.194-2.08-0.173-2.771
	c0.103-2.802,0.99-5.712,2.643-8.631c1.369-2.418,2.988-4.392,5.497-6.706c2.14-1.973,4.457-3.5,6.873-4.528
	c3.065-1.308,5.809-1.66,8.838-1.136c1.675,0.291,3.167,0.883,4.628,1.839c0.943,0.616,2.043,1.703,2.768,2.729
	c0.545,0.771,1.26,2.342,1.592,3.508c0.711,2.45,0.597,5.529-0.309,8.522c-0.794,2.633-2.089,5.187-3.797,7.492
	c-0.481,0.651-1.823,2.214-2.368,2.758c-2.94,2.936-6.267,4.93-9.99,5.988c-3.428,0.975-6.502,0.886-9.259-0.271
	C212.478,503.618,211.489,502.958,210.333,501.867L210.333,501.867z M212.144,553.017c1.064-1.251,1.294-1.57,1.951-2.703
	c1.986-3.426,3.077-7.633,3.22-12.446c0.137-4.497-0.552-9.46-2.039-14.727c-2.446-8.655-6.117-15.378-11.278-20.657
	c-2.641-2.703-4.999-4.472-7.306-5.479c-1.393-0.608-3.335-1.071-5.556-1.324c-6.16-0.698-12.438,0.021-18.831,2.149
	c-6.946,2.316-13.63,6.139-18.664,10.671c-1.346,1.214-1.667,1.547-3.02,3.138c-2.081,2.447-2.894,3.628-3.917,5.695
	c-1.489,3.014-2.25,6.291-2.187,9.42c0.024,1.133,0.179,2.555,0.4,3.617c0.549,2.65,1.942,5.477,3.542,7.195
	c0.319,0.344,2.047,1.813,2.596,2.209c1.193,0.861,3.521,1.956,5.406,2.545c1.308,0.408,3.838,0.985,5.223,1.189
	c3.901,0.576,7.707,0.581,12.547,0.016c1.436-0.166,2.164-0.193,2.561-0.094c0.424,0.105,0.34,0.01,1.998,2.357
	c1.157,1.638,2.732,3.54,4.195,5.063c1.002,1.043,2.1,2.041,3.725,3.385c1.56,1.292,2.268,1.819,3.421,2.547
	c5.274,3.328,10.106,3.826,15.176,1.565c1.334-0.595,2.412-1.239,3.615-2.167C210.136,555.25,210.803,554.594,212.144,553.017z
	 M413.171,259.949c-4.984-4.877-6.911-13.939-4.465-20.99c1.41-4.053,4.195-7.1,7.588-8.294c1.638-0.574,3.184-0.625,4.993-0.167
	c4.99,1.271,8.962,5.975,10.353,12.262c0.233,1.055,0.347,1.87,0.449,3.21c0.209,2.741,0.016,5.043-0.627,7.538
	c-0.891,3.449-2.422,5.958-4.721,7.735c-1.639,1.266-3.121,1.895-4.913,2.077c-1.043,0.109-1.845,0.052-2.879-0.201
	c-1.549-0.377-2.662-0.856-3.919-1.686C414.585,261.141,413.515,260.287,413.171,259.949L413.171,259.949z M481.642,294.544
	c-0.766-0.872-1.514-2.247-1.844-3.393c-0.352-1.215-0.438-2.795-0.238-4.409c0.248-2.022,1.154-4.116,2.689-6.215
	c0.512-0.699,1.995-2.366,2.595-2.918c2.101-1.926,4.342-3.39,6.781-4.431c3.493-1.491,6.944-1.961,10.194-1.389
	c2.289,0.405,4.254,1.314,5.908,2.734c1.846,1.586,2.801,3.471,3.033,5.988c0.281,2.996-0.576,5.98-2.557,8.908
	c-0.461,0.684-1.74,2.192-2.363,2.79c-4.324,4.145-10.336,6.511-15.688,6.177c-2.272-0.142-4.39-0.79-6.117-1.873
	C483.572,296.226,481.929,294.869,481.642,294.544L481.642,294.544z M441.283,252.755c-1.104-1.189-1.993-2.59-2.674-4.216
	c-0.325-0.776-0.467-1.192-0.763-2.234c-0.998-3.527-1.077-7.281-0.233-11.136c1.339-6.125,5.134-11.816,9.628-14.442
	c1.82-1.062,3.426-1.556,5.588-1.718c0.826-0.06,1.1-0.057,1.725,0.02c0.854,0.108,2.17,0.428,2.754,0.671
	c1.205,0.495,2.709,1.441,3.502,2.204c0.898,0.863,1.727,1.846,2.348,2.784c0.953,1.43,1.684,3.241,2.119,5.249
	c0.52,2.392,0.588,5.513,0.18,8.213c-0.252,1.662-0.73,3.766-1.168,5.145c-0.641,2.007-1.641,4.104-2.801,5.863
	c-1.975,2.995-4.395,5.121-7.205,6.335c-0.6,0.258-1.834,0.625-2.545,0.754c-0.648,0.118-2.016,0.191-2.701,0.145
	c-1.012-0.066-2.854-0.503-3.805-0.898c-1.137-0.473-1.807-0.888-2.875-1.781C441.895,253.326,441.413,252.895,441.283,252.755
	L441.283,252.755z M470.583,268.759c-1-0.942-1.506-1.563-2.08-2.545c-0.689-1.179-1.225-2.655-1.439-3.964
	c-0.107-0.656-0.193-2.079-0.174-2.771c0.104-2.803,0.99-5.713,2.643-8.632c1.369-2.418,2.988-4.392,5.496-6.707
	c2.141-1.972,4.459-3.499,6.875-4.527c3.065-1.308,5.809-1.66,8.838-1.136c1.675,0.291,3.168,0.883,4.629,1.839
	c0.943,0.616,2.041,1.703,2.768,2.728c0.545,0.773,1.26,2.344,1.592,3.51c0.711,2.45,0.598,5.529-0.309,8.523
	c-0.795,2.633-2.09,5.186-3.797,7.492c-0.48,0.65-1.822,2.213-2.367,2.758c-2.94,2.935-6.267,4.93-9.991,5.988
	c-3.427,0.974-6.501,0.885-9.259-0.271C472.728,270.511,471.739,269.851,470.583,268.759L470.583,268.759z M472.394,319.909
	c1.064-1.251,1.295-1.57,1.951-2.703c1.986-3.424,3.076-7.633,3.221-12.446c0.137-4.497-0.553-9.459-2.039-14.727
	c-2.447-8.654-6.117-15.377-11.277-20.657c-2.643-2.703-5-4.472-7.307-5.479c-1.393-0.607-3.336-1.071-5.557-1.324
	c-6.16-0.697-12.438,0.021-18.83,2.15c-6.945,2.316-13.63,6.138-18.664,10.672c-1.346,1.212-1.666,1.545-3.02,3.137
	c-2.08,2.446-2.894,3.627-3.916,5.695c-1.489,3.013-2.251,6.29-2.188,9.419c0.024,1.133,0.18,2.555,0.4,3.618
	c0.549,2.651,1.941,5.476,3.541,7.194c0.319,0.344,2.048,1.813,2.597,2.209c1.192,0.861,3.521,1.956,5.406,2.545
	c1.308,0.408,3.838,0.985,5.223,1.189c3.901,0.576,7.707,0.581,12.547,0.016c1.436-0.166,2.163-0.193,2.561-0.094
	c0.424,0.105,0.34,0.01,1.998,2.357c1.157,1.638,2.731,3.54,4.194,5.063c1.002,1.043,2.1,2.041,3.725,3.385
	c1.559,1.292,2.268,1.82,3.422,2.547c5.273,3.328,10.105,3.826,15.176,1.565c1.334-0.595,2.412-1.239,3.615-2.167
	C470.386,322.142,471.054,321.486,472.394,319.909z M268.987,303.173c-4.984-4.876-6.91-13.938-4.464-20.989
	c1.41-4.053,4.195-7.1,7.587-8.294c1.638-0.574,3.185-0.625,4.993-0.167c4.99,1.271,8.962,5.975,10.353,12.262
	c0.234,1.055,0.347,1.87,0.449,3.21c0.208,2.741,0.016,5.043-0.627,7.538c-0.891,3.448-2.421,5.958-4.72,7.735
	c-1.638,1.266-3.121,1.895-4.914,2.076c-1.043,0.109-1.845,0.053-2.879-0.2c-1.548-0.378-2.661-0.856-3.919-1.687
	C270.401,304.367,269.331,303.511,268.987,303.173L268.987,303.173z M337.458,337.77c-0.766-0.872-1.514-2.247-1.844-3.394
	c-0.352-1.215-0.438-2.794-0.237-4.408c0.248-2.022,1.153-4.116,2.688-6.215c0.513-0.699,1.996-2.367,2.596-2.918
	c2.1-1.926,4.342-3.39,6.781-4.432c3.493-1.492,6.943-1.961,10.193-1.388c2.289,0.405,4.254,1.313,5.908,2.734
	c1.847,1.586,2.801,3.47,3.034,5.988c0.281,2.996-0.576,5.98-2.557,8.907c-0.462,0.684-1.74,2.193-2.364,2.791
	c-4.324,4.145-10.335,6.51-15.688,6.177c-2.272-0.142-4.39-0.79-6.117-1.874C339.39,339.451,337.745,338.094,337.458,337.77
	L337.458,337.77z M297.101,295.981c-1.105-1.191-1.994-2.59-2.674-4.216c-0.326-0.776-0.468-1.192-0.763-2.234
	c-0.998-3.527-1.078-7.281-0.233-11.136c1.338-6.125,5.133-11.816,9.629-14.442c1.819-1.062,3.425-1.556,5.586-1.718
	c0.826-0.06,1.1-0.057,1.726,0.02c0.854,0.108,2.17,0.429,2.754,0.671c1.204,0.495,2.708,1.441,3.502,2.204
	c0.898,0.863,1.727,1.846,2.348,2.783c0.953,1.431,1.684,3.242,2.119,5.25c0.52,2.392,0.588,5.513,0.179,8.213
	c-0.252,1.662-0.729,3.766-1.167,5.145c-0.641,2.007-1.641,4.104-2.801,5.863c-1.976,2.995-4.395,5.121-7.205,6.335
	c-0.6,0.258-1.834,0.625-2.545,0.754c-0.649,0.118-2.017,0.191-2.702,0.146c-1.01-0.067-2.853-0.504-3.804-0.899
	c-1.137-0.473-1.808-0.889-2.876-1.781c-0.461-0.386-0.943-0.816-1.074-0.956H297.101z M326.4,311.985
	c-1.001-0.942-1.507-1.563-2.08-2.546c-0.689-1.178-1.225-2.654-1.439-3.963c-0.107-0.656-0.194-2.08-0.174-2.771
	c0.104-2.802,0.99-5.712,2.643-8.631c1.369-2.418,2.988-4.392,5.497-6.706c2.14-1.973,4.457-3.5,6.873-4.528
	c3.065-1.308,5.809-1.66,8.838-1.136c1.676,0.291,3.168,0.883,4.629,1.839c0.943,0.616,2.043,1.703,2.768,2.729
	c0.545,0.771,1.26,2.342,1.593,3.508c0.711,2.45,0.597,5.529-0.31,8.522c-0.794,2.633-2.089,5.187-3.797,7.492
	c-0.48,0.651-1.822,2.214-2.367,2.758c-2.94,2.936-6.267,4.93-9.99,5.988c-3.428,0.975-6.502,0.886-9.259-0.271
	C328.545,313.736,327.557,313.076,326.4,311.985L326.4,311.985z M328.211,363.135c1.064-1.252,1.295-1.57,1.951-2.703
	c1.986-3.426,3.077-7.633,3.22-12.447c0.137-4.497-0.552-9.46-2.039-14.727c-2.445-8.655-6.116-15.378-11.277-20.657
	c-2.641-2.703-4.999-4.472-7.306-5.479c-1.394-0.608-3.336-1.071-5.557-1.324c-6.16-0.698-12.438,0.021-18.831,2.149
	c-6.946,2.316-13.63,6.139-18.664,10.671c-1.346,1.214-1.667,1.547-3.02,3.138c-2.081,2.447-2.894,3.628-3.917,5.695
	c-1.489,3.014-2.25,6.291-2.187,9.42c0.024,1.133,0.179,2.555,0.4,3.617c0.549,2.65,1.942,5.477,3.542,7.195
	c0.319,0.344,2.047,1.813,2.596,2.209c1.193,0.861,3.521,1.956,5.406,2.545c1.308,0.408,3.838,0.985,5.223,1.189
	c3.901,0.576,7.707,0.581,12.547,0.016c1.436-0.166,2.164-0.193,2.561-0.094c0.424,0.105,0.34,0.01,1.998,2.357
	c1.157,1.637,2.732,3.54,4.195,5.063c1.002,1.043,2.1,2.041,3.725,3.385c1.56,1.291,2.268,1.818,3.421,2.547
	c5.274,3.328,10.106,3.826,15.177,1.564c1.334-0.594,2.412-1.238,3.615-2.166C326.203,365.367,326.871,364.711,328.211,363.135z
	 M476.171,101.949c-4.984-4.877-6.911-13.939-4.465-20.99c1.41-4.053,4.195-7.1,7.588-8.294c1.638-0.574,3.184-0.625,4.993-0.167
	c4.99,1.271,8.962,5.975,10.353,12.262c0.233,1.055,0.347,1.87,0.449,3.21c0.209,2.741,0.016,5.043-0.627,7.538
	c-0.891,3.449-2.422,5.958-4.721,7.735c-1.639,1.266-3.121,1.895-4.913,2.077c-1.043,0.109-1.845,0.052-2.879-0.201
	c-1.549-0.377-2.662-0.856-3.919-1.686C477.585,103.141,476.515,102.287,476.171,101.949L476.171,101.949z M544.642,136.544
	c-0.766-0.872-1.514-2.247-1.844-3.393c-0.352-1.215-0.438-2.795-0.238-4.409c0.248-2.022,1.154-4.116,2.689-6.215
	c0.512-0.699,1.995-2.366,2.595-2.918c2.101-1.926,4.342-3.39,6.781-4.431c3.493-1.491,6.944-1.961,10.194-1.389
	c2.289,0.405,4.254,1.314,5.908,2.734c1.846,1.586,2.801,3.471,3.033,5.988c0.281,2.996-0.576,5.98-2.557,8.908
	c-0.461,0.684-1.74,2.192-2.363,2.79c-4.324,4.145-10.336,6.511-15.688,6.177c-2.272-0.142-4.39-0.79-6.117-1.873
	C546.572,138.226,544.929,136.869,544.642,136.544L544.642,136.544z M504.283,94.755c-1.104-1.189-1.993-2.59-2.674-4.216
	c-0.325-0.776-0.467-1.192-0.763-2.234c-0.998-3.527-1.077-7.281-0.233-11.136c1.339-6.125,5.134-11.816,9.628-14.442
	c1.82-1.062,3.426-1.556,5.588-1.718c0.826-0.06,1.1-0.057,1.725,0.02c0.854,0.108,2.17,0.428,2.754,0.671
	c1.205,0.495,2.709,1.441,3.502,2.204c0.898,0.863,1.727,1.846,2.348,2.784c0.953,1.43,1.684,3.241,2.119,5.249
	c0.52,2.392,0.588,5.513,0.18,8.213c-0.252,1.662-0.73,3.766-1.168,5.145c-0.641,2.007-1.641,4.104-2.801,5.863
	c-1.975,2.995-4.395,5.121-7.205,6.335c-0.6,0.258-1.834,0.625-2.545,0.754c-0.648,0.118-2.016,0.191-2.701,0.145
	c-1.012-0.066-2.854-0.503-3.805-0.898c-1.137-0.473-1.807-0.888-2.875-1.781C504.895,95.326,504.413,94.895,504.283,94.755
	L504.283,94.755z M533.583,110.759c-1-0.942-1.506-1.563-2.08-2.545c-0.689-1.179-1.225-2.655-1.439-3.964
	c-0.107-0.656-0.193-2.079-0.174-2.771c0.104-2.803,0.99-5.713,2.643-8.632c1.369-2.418,2.988-4.392,5.496-6.707
	c2.141-1.972,4.459-3.499,6.875-4.527c3.065-1.308,5.809-1.66,8.838-1.136c1.675,0.291,3.168,0.883,4.629,1.839
	c0.943,0.616,2.041,1.703,2.768,2.728c0.545,0.773,1.26,2.344,1.592,3.51c0.711,2.45,0.598,5.529-0.309,8.523
	c-0.795,2.633-2.09,5.186-3.797,7.492c-0.48,0.65-1.822,2.213-2.367,2.758c-2.94,2.935-6.267,4.93-9.991,5.988
	c-3.427,0.974-6.501,0.885-9.259-0.271C535.728,112.511,534.739,111.851,533.583,110.759L533.583,110.759z M535.394,161.909
	c1.064-1.251,1.295-1.57,1.951-2.703c1.986-3.424,3.076-7.633,3.221-12.446c0.137-4.497-0.553-9.459-2.039-14.727
	c-2.447-8.654-6.117-15.377-11.277-20.657c-2.643-2.703-5-4.472-7.307-5.479c-1.393-0.607-3.336-1.071-5.557-1.324
	c-6.16-0.697-12.438,0.021-18.83,2.15c-6.945,2.316-13.63,6.138-18.664,10.672c-1.346,1.212-1.666,1.545-3.02,3.137
	c-2.08,2.446-2.894,3.627-3.916,5.695c-1.489,3.013-2.251,6.29-2.188,9.419c0.024,1.133,0.18,2.555,0.4,3.618
	c0.549,2.651,1.941,5.476,3.541,7.194c0.319,0.344,2.048,1.813,2.597,2.209c1.192,0.861,3.521,1.956,5.406,2.545
	c1.308,0.408,3.838,0.985,5.223,1.189c3.901,0.576,7.707,0.581,12.547,0.016c1.436-0.166,2.163-0.193,2.561-0.094
	c0.424,0.105,0.34,0.01,1.998,2.357c1.157,1.638,2.731,3.54,4.194,5.063c1.002,1.043,2.1,2.041,3.725,3.385
	c1.559,1.292,2.268,1.82,3.422,2.547c5.273,3.328,10.105,3.826,15.176,1.565c1.334-0.595,2.412-1.239,3.615-2.167
	C533.386,164.142,534.054,163.486,535.394,161.909z M331.987,145.173c-4.984-4.876-6.91-13.938-4.464-20.989
	c1.409-4.053,4.195-7.1,7.587-8.294c1.638-0.574,3.185-0.625,4.993-0.167c4.99,1.271,8.963,5.975,10.354,12.262
	c0.233,1.055,0.347,1.87,0.449,3.21c0.208,2.741,0.016,5.043-0.628,7.538c-0.891,3.448-2.421,5.958-4.72,7.735
	c-1.639,1.266-3.121,1.895-4.914,2.076c-1.043,0.109-1.845,0.053-2.879-0.2c-1.548-0.378-2.661-0.856-3.919-1.687
	C333.401,146.367,332.331,145.511,331.987,145.173L331.987,145.173z M400.458,179.77c-0.766-0.872-1.514-2.247-1.844-3.394
	c-0.352-1.215-0.438-2.794-0.237-4.408c0.248-2.022,1.153-4.116,2.688-6.215c0.513-0.699,1.996-2.367,2.596-2.918
	c2.1-1.926,4.342-3.39,6.781-4.432c3.493-1.492,6.943-1.961,10.193-1.388c2.289,0.405,4.254,1.313,5.908,2.734
	c1.847,1.586,2.801,3.47,3.034,5.988c0.281,2.996-0.576,5.98-2.557,8.907c-0.462,0.684-1.74,2.193-2.364,2.791
	c-4.324,4.145-10.335,6.51-15.688,6.177c-2.272-0.142-4.39-0.79-6.117-1.874C402.39,181.451,400.745,180.094,400.458,179.77
	L400.458,179.77z M360.101,137.981c-1.105-1.191-1.993-2.59-2.674-4.216c-0.326-0.776-0.468-1.192-0.763-2.234
	c-0.998-3.527-1.078-7.281-0.233-11.136c1.338-6.125,5.133-11.816,9.629-14.442c1.819-1.062,3.425-1.556,5.586-1.718
	c0.826-0.06,1.1-0.057,1.726,0.02c0.854,0.108,2.17,0.429,2.754,0.671c1.204,0.495,2.708,1.441,3.502,2.204
	c0.898,0.863,1.727,1.846,2.348,2.783c0.953,1.431,1.684,3.242,2.119,5.25c0.52,2.392,0.588,5.513,0.179,8.213
	c-0.252,1.662-0.729,3.766-1.167,5.145c-0.641,2.007-1.641,4.104-2.801,5.863c-1.976,2.995-4.395,5.121-7.205,6.335
	c-0.6,0.258-1.834,0.625-2.545,0.754c-0.649,0.118-2.017,0.191-2.702,0.146c-1.01-0.067-2.853-0.504-3.804-0.899
	c-1.137-0.473-1.808-0.889-2.876-1.781C360.712,138.551,360.229,138.121,360.101,137.981L360.101,137.981z M389.4,153.985
	c-1.001-0.942-1.507-1.563-2.08-2.546c-0.689-1.178-1.225-2.654-1.439-3.963c-0.107-0.656-0.194-2.08-0.174-2.771
	c0.104-2.802,0.99-5.712,2.643-8.631c1.369-2.418,2.988-4.392,5.497-6.706c2.14-1.973,4.457-3.5,6.873-4.528
	c3.065-1.308,5.809-1.66,8.838-1.136c1.676,0.291,3.168,0.883,4.629,1.839c0.943,0.616,2.043,1.703,2.768,2.729
	c0.545,0.771,1.26,2.342,1.593,3.508c0.711,2.45,0.597,5.529-0.31,8.522c-0.794,2.633-2.089,5.187-3.797,7.492
	c-0.48,0.651-1.822,2.214-2.367,2.758c-2.94,2.936-6.267,4.93-9.99,5.988c-3.428,0.975-6.502,0.886-9.259-0.271
	C391.545,155.736,390.557,155.076,389.4,153.985L389.4,153.985z M391.211,205.135c1.064-1.252,1.295-1.57,1.951-2.703
	c1.986-3.426,3.077-7.633,3.22-12.447c0.137-4.497-0.552-9.46-2.039-14.727c-2.445-8.655-6.116-15.378-11.277-20.657
	c-2.641-2.703-4.999-4.472-7.306-5.479c-1.394-0.608-3.336-1.071-5.557-1.324c-6.16-0.698-12.438,0.021-18.83,2.149
	c-6.946,2.316-13.631,6.139-18.664,10.671c-1.346,1.214-1.667,1.547-3.02,3.138c-2.081,2.447-2.895,3.628-3.917,5.695
	c-1.489,3.014-2.25,6.291-2.187,9.42c0.023,1.133,0.179,2.555,0.399,3.617c0.55,2.65,1.942,5.477,3.542,7.195
	c0.318,0.344,2.047,1.813,2.596,2.209c1.193,0.861,3.521,1.956,5.406,2.545c1.309,0.408,3.838,0.985,5.223,1.189
	c3.901,0.576,7.707,0.581,12.547,0.016c1.436-0.166,2.164-0.193,2.561-0.094c0.424,0.105,0.34,0.01,1.998,2.357
	c1.157,1.637,2.732,3.54,4.195,5.063c1.002,1.043,2.1,2.041,3.725,3.385c1.56,1.291,2.268,1.818,3.421,2.547
	c5.274,3.328,10.106,3.826,15.177,1.564c1.334-0.594,2.412-1.238,3.615-2.166C389.203,207.367,389.871,206.711,391.211,205.135z"/>
</svg>
